<svg id="visual" viewBox="0 0 900 600" width="900" height="600" xmlns="http://www.w3.org/2000/svg" xmlns:xlink="http://www.w3.org/1999/xlink" version="1.1"><rect x="0" y="0" width="900" height="600" fill="#15171F"></rect><defs><linearGradient id="grad1_0" x1="33.3%" y1="0%" x2="100%" y2="100%"><stop offset="20%" stop-color="#001220" stop-opacity="1"></stop><stop offset="80%" stop-color="#001220" stop-opacity="1"></stop></linearGradient></defs><defs><linearGradient id="grad2_0" x1="0%" y1="0%" x2="66.7%" y2="100%"><stop offset="20%" stop-color="#001220" stop-opacity="1"></stop><stop offset="80%" stop-color="#001220" stop-opacity="1"></stop></linearGradient></defs><g transform="translate(900, 0)"><path d="M0 405.6C-50.1 393.9 -100.1 382.2 -151.2 364.9C-202.2 347.7 -254.2 325 -286.8 286.8C-319.4 248.7 -332.7 195 -349.2 144.7C-365.8 94.3 -385.7 47.1 -405.6 0L0 0Z" fill="#FBAE3C"></path></g><g transform="translate(0, 600)"><path d="M0 -405.6C41.6 -371.3 83.2 -336.9 133.2 -321.5C183.1 -306.1 241.5 -309.6 285 -285C328.5 -260.3 357.1 -207.4 374.7 -155.2C392.4 -103 399 -51.5 405.6 0L0 0Z" fill="#FBAE3C"></path></g></svg>